<svg xmlns="http://www.w3.org/2000/svg" width="55.622" height="57.503" viewBox="0 0 55.622 57.503">
  <g id="Grupo_7055" data-name="Grupo 7055" transform="translate(-706.054 -5428)">
    <path id="Caminho_4162" data-name="Caminho 4162" d="M59.746,47.954a.821.821,0,0,1-.71-1.232A24.972,24.972,0,0,0,46.706,11.075a.822.822,0,1,1,.611-1.525A26.615,26.615,0,0,1,60.46,47.544a.821.821,0,0,1-.714.41Z" transform="translate(695.227 5424.663)" fill="#1d1d1b"/>
    <path id="Caminho_4163" data-name="Caminho 4163" d="M30.483,68.836a26.7,26.7,0,0,1-23.035-13.3.821.821,0,1,1,1.421-.821,24.957,24.957,0,0,0,38.908,5.508.821.821,0,1,1,1.139,1.184A26.467,26.467,0,0,1,30.483,68.836Z" transform="translate(702.167 5416.667)" fill="#1d1d1b"/>
    <path id="Caminho_4164" data-name="Caminho 4164" d="M4.6,40.4a.821.821,0,0,1-.8-.64A26.623,26.623,0,0,1,29.737,7.248a.821.821,0,1,1,0,1.643,24.972,24.972,0,0,0-24.33,30.5.821.821,0,0,1-.619.986A.834.834,0,0,1,4.6,40.4Z" transform="translate(702.913 5425.063)" fill="#1d1d1b"/>
    <path id="Caminho_4165" data-name="Caminho 4165" d="M30.092,12.268a.821.821,0,0,1-.582-1.4l3.727-3.734L29.511,3.4a.822.822,0,1,1,1.162-1.162l4.31,4.311a.821.821,0,0,1,0,1.162l-4.31,4.309A.821.821,0,0,1,30.092,12.268Z" transform="translate(698.248 5426)" fill="#1d1d1b"/>
    <path id="Caminho_4166" data-name="Caminho 4166" d="M6.247,61.843a.834.834,0,0,1-.214-.028.821.821,0,0,1-.581-1.006L7.03,54.921a.821.821,0,0,1,1-.581l5.888,1.578A.821.821,0,1,1,13.5,57.5L8.4,56.14,7.039,61.233a.821.821,0,0,1-.792.61Z" transform="translate(702.505 5416.66)" fill="#1d1d1b"/>
    <path id="Caminho_4167" data-name="Caminho 4167" d="M62.169,54.68a.821.821,0,0,1-.793-.609L59.8,48.181a.821.821,0,0,1,1.586-.425l1.365,5.093,5.093-1.365a.821.821,0,1,1,.425,1.587l-5.888,1.578a.813.813,0,0,1-.207.031Z" transform="translate(692.802 5417.935)" fill="#1d1d1b"/>
  </g>
</svg>
