<svg xmlns="http://www.w3.org/2000/svg" width="20.319" height="21.257" viewBox="0 0 20.319 21.257">
  <g id="Grupo_6775" data-name="Grupo 6775" transform="translate(-1573.277 -136.153)">
    <g id="user" transform="translate(1573.277 136.153)">
      <g id="Grupo_5" data-name="Grupo 5" transform="translate(0 10.656)">
        <g id="Grupo_4" data-name="Grupo 4" transform="translate(0)">
          <path id="Caminho_6" data-name="Caminho 6" d="M21.488,257.323a10.171,10.171,0,0,0-10.16,10.16.442.442,0,0,0,.883,0,9.276,9.276,0,1,1,18.552,0,.442.442,0,0,0,.883,0A10.171,10.171,0,0,0,21.488,257.323Z" transform="translate(-11.328 -257.323)" fill="#000"/>
        </g>
      </g>
      <g id="Grupo_7" data-name="Grupo 7" transform="translate(5.301 0)">
        <g id="Grupo_6" data-name="Grupo 6">
          <path id="Caminho_7" data-name="Caminho 7" d="M144.187,0a4.859,4.859,0,1,0,4.859,4.859A4.865,4.865,0,0,0,144.187,0Zm0,8.834a3.975,3.975,0,1,1,3.975-3.975A3.98,3.98,0,0,1,144.187,8.834Z" transform="translate(-139.328)" fill="#000"/>
        </g>
      </g>
    </g>
  </g>
</svg>
