<svg id="security" xmlns="http://www.w3.org/2000/svg" width="57.672" height="74.062" viewBox="0 0 57.672 74.062">
  <path id="Caminho_3476" data-name="Caminho 3476" d="M56.993,15,29.157.163a1.383,1.383,0,0,0-1.318.008L.774,15a1.386,1.386,0,0,0-.719,1.216V35.594A40.117,40.117,0,0,0,24.1,72.309l3.757,1.637a1.384,1.384,0,0,0,1.1,0l4.233-1.828A40.038,40.038,0,0,0,57.727,35.209V16.219A1.386,1.386,0,0,0,56.993,15ZM54.955,35.209A37.273,37.273,0,0,1,32.107,69.57l-.009,0-3.686,1.591-3.2-1.4A37.342,37.342,0,0,1,2.826,35.594V17.039L28.514,2.96,54.955,17.049Zm0,0" transform="translate(-0.055 0)" fill="#1d1d1b"/>
  <path id="Caminho_3477" data-name="Caminho 3477" d="M82.282,151.823a1.386,1.386,0,0,0-2.108,1.8l7.32,8.572a1.385,1.385,0,0,0,1.928.176l17.049-13.87a1.386,1.386,0,0,0-1.749-2.15l-16,13.015Zm0,0" transform="translate(-64.046 -117.128)" fill="#1d1d1b"/>
</svg>
