<svg xmlns="http://www.w3.org/2000/svg" width="19.393" height="18.647" viewBox="0 0 19.393 18.647">
  <path id="Icon_ionic-ios-heart-empty" data-name="Icon ionic-ios-heart-empty" d="M17.547,3.938H17.5a5.3,5.3,0,0,0-4.429,2.424A5.3,5.3,0,0,0,8.643,3.938H8.6A5.27,5.27,0,0,0,3.375,9.205,11.347,11.347,0,0,0,5.6,15.391a39.05,39.05,0,0,0,7.468,7.193,39.05,39.05,0,0,0,7.468-7.193,11.347,11.347,0,0,0,2.228-6.186A5.27,5.27,0,0,0,17.547,3.938Zm1.939,10.685a35.755,35.755,0,0,1-6.415,6.321,35.808,35.808,0,0,1-6.415-6.326A10.057,10.057,0,0,1,4.68,9.205,3.955,3.955,0,0,1,8.605,5.247h.042a3.908,3.908,0,0,1,1.916.5,4.073,4.073,0,0,1,1.417,1.329,1.31,1.31,0,0,0,2.191,0,4.114,4.114,0,0,1,1.417-1.329,3.908,3.908,0,0,1,1.916-.5h.042a3.955,3.955,0,0,1,3.925,3.958A10.184,10.184,0,0,1,19.486,14.622Z" transform="translate(-3.375 -3.938)" fill="#000"/>
</svg>
