<svg xmlns="http://www.w3.org/2000/svg" width="99.789" height="54.575" viewBox="0 0 99.789 54.575">
  <g id="Grupo_7164" data-name="Grupo 7164" transform="translate(-582.745 -5078.184)">
    <path id="Caminho_4314" data-name="Caminho 4314" d="M-5195.681,2404.256h20.586" transform="translate(5786.97 2684.429)" fill="none" stroke="#1d1d1b" stroke-width="1.6"/>
    <path id="Caminho_4315" data-name="Caminho 4315" d="M-5195.681,2404.256h12.2" transform="translate(5778.426 2693.811)" fill="none" stroke="#1d1d1b" stroke-width="1.6"/>
    <path id="Caminho_4316" data-name="Caminho 4316" d="M-5195.681,2404.256h30.059" transform="translate(5789.707 2702.021)" fill="none" stroke="#1d1d1b" stroke-width="1.6"/>
    <path id="Caminho_4317" data-name="Caminho 4317" d="M-5195.681,2404.256h22.074" transform="translate(5781.498 2709.057)" fill="none" stroke="#1d1d1b" stroke-width="1.6"/>
    <g id="Elipse_261" data-name="Elipse 261" transform="translate(615.057 5117.725)" fill="none" stroke="#1d1d1b" stroke-width="1.6">
      <ellipse cx="7.517" cy="7.517" rx="7.517" ry="7.517" stroke="none"/>
      <ellipse cx="7.517" cy="7.517" rx="6.717" ry="6.717" fill="none"/>
    </g>
    <g id="Elipse_262" data-name="Elipse 262" transform="translate(660.967 5117.725)" fill="none" stroke="#1d1d1b" stroke-width="1.6">
      <ellipse cx="7.517" cy="7.517" rx="7.517" ry="7.517" stroke="none"/>
      <ellipse cx="7.517" cy="7.517" rx="6.717" ry="6.717" fill="none"/>
    </g>
    <path id="Caminho_4318" data-name="Caminho 4318" d="M-10251.456,6309.037v-16.024h-55.5v16.752" transform="translate(10907 -1214.03)" fill="none" stroke="#1d1d1b" stroke-width="1.6"/>
    <path id="Caminho_4319" data-name="Caminho 4319" d="M-10277.285,6339.568h25.829v-30.605" transform="translate(10907 -1214.03)" fill="none" stroke="#1d1d1b" stroke-width="1.6"/>
    <path id="Caminho_4320" data-name="Caminho 4320" d="M-10291.621,6339.568h-15.545v-15.893" transform="translate(10907 -1214.03)" fill="none" stroke="#1d1d1b" stroke-width="1.6"/>
    <path id="Caminho_4321" data-name="Caminho 4321" d="M-10299.456,5068.417h15.023l11.163,13.644v18.681" transform="translate(10955 25)" fill="none" stroke="#1d1d1b" stroke-width="1.6"/>
    <path id="Caminho_4322" data-name="Caminho 4322" d="M-10299.456,5100.742h6.243" transform="translate(10955 24.796)" fill="none" stroke="#1d1d1b" stroke-width="1.6"/>
    <path id="Caminho_4323" data-name="Caminho 4323" d="M-10299.456,5100.742h7.046" transform="translate(10974.943 24.796)" fill="none" stroke="#1d1d1b" stroke-width="1.6"/>
  </g>
</svg>
