<svg xmlns="http://www.w3.org/2000/svg" width="57.001" height="57" viewBox="0 0 57.001 57">
  <g id="Grupo_7168" data-name="Grupo 7168" transform="translate(-1014 -5081)">
    <g id="União_2" data-name="União 2" transform="translate(-9941 5056)" fill="#fff">
      <path d="M 11011.201171875 81.20021820068359 L 10955.7998046875 81.20021820068359 L 10955.7998046875 25.79996681213379 L 10973.201171875 25.79996681213379 L 10973.201171875 63.00012588500977 L 10973.201171875 63.80012893676758 L 10974.0009765625 63.80012893676758 L 11011.201171875 63.80012893676758 L 11011.201171875 81.20021820068359 Z" stroke="none"/>
      <path d="M 11010.4013671875 80.40021514892578 L 11010.4013671875 64.60012817382812 L 10972.4013671875 64.60012817382812 L 10972.4013671875 26.59996795654297 L 10956.599609375 26.59996795654297 L 10956.599609375 80.40021514892578 L 11010.4013671875 80.40021514892578 M 11012.0009765625 82.00022125244141 L 10955 82.00022125244141 L 10955 24.99996757507324 L 10974.0009765625 24.99996757507324 L 10974.0009765625 63.00012588500977 L 11012.0009765625 63.00012588500977 L 11012.0009765625 82.00022125244141 Z" stroke="none" fill="#1d1d1b"/>
    </g>
    <path id="Caminho_4326" data-name="Caminho 4326" d="M-9922.9,5064.675h-9.312" transform="translate(10955 27)" fill="none" stroke="#1d1d1b" stroke-width="1.6"/>
    <path id="Caminho_4331" data-name="Caminho 4331" d="M-9922.9,5064.675h-9.312" transform="translate(-4025.232 -4802.883) rotate(-90)" fill="none" stroke="#1d1d1b" stroke-width="1.6"/>
    <path id="Caminho_4327" data-name="Caminho 4327" d="M-9922.9,5064.675h-9.312" transform="translate(10955 37)" fill="none" stroke="#1d1d1b" stroke-width="1.6"/>
    <path id="Caminho_4330" data-name="Caminho 4330" d="M-9922.9,5064.675h-9.312" transform="translate(-4015.232 -4802.883) rotate(-90)" fill="none" stroke="#1d1d1b" stroke-width="1.6"/>
    <path id="Caminho_4328" data-name="Caminho 4328" d="M-9922.9,5064.675h-9.312" transform="translate(10955 47)" fill="none" stroke="#1d1d1b" stroke-width="1.6"/>
    <path id="Caminho_4329" data-name="Caminho 4329" d="M-9922.9,5064.675h-9.312" transform="translate(-4005.232 -4802.883) rotate(-90)" fill="none" stroke="#1d1d1b" stroke-width="1.6"/>
  </g>
</svg>
