<svg id="Grupo_9" data-name="Grupo 9" xmlns="http://www.w3.org/2000/svg" xmlns:xlink="http://www.w3.org/1999/xlink" width="244.371" height="24.963" viewBox="0 0 244.371 24.963">
  <defs>
    <clipPath id="clip-path">
      <rect id="Retângulo_6" data-name="Retângulo 6" width="244.371" height="24.963" fill="#1d1d1b"/>
    </clipPath>
  </defs>
  <path id="Caminho_20" data-name="Caminho 20" d="M16.131.132,10.313,19.926h-.1L4.416.132H0V24.391H3.368V6.647l.1-.019L9.114,24.391h2.317L17,6.894l.1.019V24.391h3.365V.132Z" transform="translate(0 0.221)" fill="#1d1d1b"/>
  <g id="Grupo_8" data-name="Grupo 8">
    <g id="Grupo_7" data-name="Grupo 7" clip-path="url(#clip-path)">
      <path id="Caminho_21" data-name="Caminho 21" d="M29.358,15.833a9.242,9.242,0,0,1-2.333,6.722,8.285,8.285,0,0,1-6.246,2.408,8.064,8.064,0,0,1-6.149-2.408,9.382,9.382,0,0,1-2.282-6.722V9.168A9.45,9.45,0,0,1,14.63,2.435,8,8,0,0,1,20.763,0a8.288,8.288,0,0,1,6.254,2.427,9.283,9.283,0,0,1,2.341,6.741ZM26,9.117a7.383,7.383,0,0,0-1.36-4.808,4.742,4.742,0,0,0-3.873-1.639,4.5,4.5,0,0,0-3.741,1.639,7.577,7.577,0,0,0-1.309,4.808v6.716a7.639,7.639,0,0,0,1.317,4.849,4.524,4.524,0,0,0,3.749,1.65,4.733,4.733,0,0,0,3.868-1.642A7.517,7.517,0,0,0,26,15.833Z" transform="translate(20.839 -0.001)" fill="#1d1d1b"/>
      <path id="Caminho_22" data-name="Caminho 22" d="M39.736,24.391h-3.4L26.938,6.5l-.1.032V24.391H23.454V.132h3.384l9.4,17.843.1-.016V.132h3.4Z" transform="translate(39.583 0.221)" fill="#1d1d1b"/>
      <path id="Caminho_23" data-name="Caminho 23" d="M52.48,18.259H45.231l-1.75,6.131H39.966L47.247.131h3.284L57.745,24.39H54.229ZM46,15.577H51.73l-2.8-9.866h-.1Z" transform="translate(67.449 0.22)" fill="#1d1d1b"/>
      <path id="Caminho_24" data-name="Caminho 24" d="M61.094,19.926h.1L67.01.132h4.333V24.39H67.977V6.913l-.1-.019-5.563,17.5H59.995L54.345,6.628l-.1.019V24.39H50.881V.132h4.413Z" transform="translate(85.87 0.221)" fill="#1d1d1b"/>
      <path id="Caminho_25" data-name="Caminho 25" d="M80.24,15.833a9.253,9.253,0,0,1-2.333,6.722,8.285,8.285,0,0,1-6.246,2.408,8.075,8.075,0,0,1-6.152-2.408,9.382,9.382,0,0,1-2.282-6.722V9.168a9.45,9.45,0,0,1,2.282-6.733A8.012,8.012,0,0,1,71.642,0,8.294,8.294,0,0,1,77.9,2.427,9.294,9.294,0,0,1,80.24,9.168ZM76.875,9.117a7.383,7.383,0,0,0-1.357-4.808,4.748,4.748,0,0,0-3.876-1.639A4.509,4.509,0,0,0,67.9,4.308a7.594,7.594,0,0,0-1.306,4.808v6.716a7.639,7.639,0,0,0,1.317,4.849,4.517,4.517,0,0,0,3.749,1.65,4.72,4.72,0,0,0,3.865-1.642,7.5,7.5,0,0,0,1.349-4.857Z" transform="translate(106.706 -0.001)" fill="#1d1d1b"/>
      <path id="Caminho_26" data-name="Caminho 26" d="M90.383.131V16.176a8.5,8.5,0,0,1-2.266,6.3,7.952,7.952,0,0,1-5.883,2.268,7.721,7.721,0,0,1-5.773-2.274,8.618,8.618,0,0,1-2.225-6.292V.131h3.384V16.176a6.869,6.869,0,0,0,1.274,4.408,4.077,4.077,0,0,0,3.341,1.591,4.249,4.249,0,0,0,3.443-1.583,6.743,6.743,0,0,0,1.306-4.416V.131Z" transform="translate(125.284 0.22)" fill="#1d1d1b"/>
      <path id="Caminho_27" data-name="Caminho 27" d="M88.534,13.936V24.382H85.15V.137H92.3a7.624,7.624,0,0,1,5.408,1.782,6.668,6.668,0,0,1,1.908,5.117,6.167,6.167,0,0,1-.89,3.325,5.888,5.888,0,0,1-2.561,2.207,4.657,4.657,0,0,1,2.693,2.1,7.347,7.347,0,0,1,.825,3.634v2.115A9.455,9.455,0,0,0,99.9,22.5a2.887,2.887,0,0,0,.766,1.5v.384H97.183a2.867,2.867,0,0,1-.742-1.674,14.926,14.926,0,0,1-.175-2.325V18.335a5.03,5.03,0,0,0-.943-3.22,3.146,3.146,0,0,0-2.607-1.18Zm0-2.586h3.6a3.966,3.966,0,0,0,3.1-1.107,4.525,4.525,0,0,0,1-3.139,4.849,4.849,0,0,0-.973-3.233A3.667,3.667,0,0,0,92.3,2.72H88.534Z" transform="translate(143.705 0.23)" fill="#1d1d1b"/>
      <path id="Caminho_28" data-name="Caminho 28" d="M36.193,2.388a2.685,2.685,0,0,0-1.981.863,3.057,3.057,0,0,0,0,4.131l3.733,4.023a.622.622,0,0,0,.882.038l.035-.038Q40.733,9.393,42.6,7.384a3.047,3.047,0,0,0,0-4.126,2.7,2.7,0,0,0-3.959,0l-.228.245-.239-.253a2.679,2.679,0,0,0-1.978-.863" transform="translate(56.384 4.029)" fill="#1d1d1b"/>
    </g>
  </g>
</svg>
