<svg xmlns="http://www.w3.org/2000/svg" width="55.309" height="55.309" viewBox="0 0 55.309 55.309">
  <g id="Grupo_7165" data-name="Grupo 7165" transform="translate(-527.138 110.862)">
    <path id="União_1" data-name="União 1" d="M13.1,44.511,0,47.777,4.351,35.618a23.879,23.879,0,1,1,8.75,8.892Z" transform="translate(530.601 -107.096)"  fill="#25D366"/>
    <path id="Icon_simple-whatsapp" data-name="Icon simple-whatsapp" d="M40.325,33.144c-.694-.346-4.072-2-4.7-2.226s-1.09-.346-1.551.346S32.3,33.485,31.9,33.941s-.8.484-1.489.173a18.7,18.7,0,0,1-5.538-3.422,20.908,20.908,0,0,1-3.826-4.77c-.4-.691-.044-1.072.3-1.417.313-.311.694-.8,1.039-1.205a5.842,5.842,0,0,0,.684-1.143,1.267,1.267,0,0,0-.058-1.208c-.173-.346-1.549-3.733-2.125-5.084-.553-1.346-1.122-1.175-1.549-1.175-.4-.035-.855-.035-1.316-.035a2.6,2.6,0,0,0-1.837.827,7.694,7.694,0,0,0-2.408,5.7c0,3.353,2.466,6.6,2.809,7.086.343.449,4.851,7.363,11.753,10.336,1.645.691,2.927,1.106,3.927,1.45a9.534,9.534,0,0,0,4.333.279c1.323-.21,4.072-1.662,4.646-3.286a5.7,5.7,0,0,0,.415-3.284c-.171-.311-.622-.484-1.314-.8M27.795,50.124h-.037a23.054,23.054,0,0,1-11.649-3.18l-.83-.493L6.637,48.7l2.316-8.4L8.4,39.433A22.856,22.856,0,0,1,44,11.237a22.557,22.557,0,0,1,6.7,16.109,22.884,22.884,0,0,1-22.9,22.78M47.289,7.948A27.982,27.982,0,0,0,27.758,0,27.4,27.4,0,0,0,3.908,41.108L0,55.309,14.6,51.5a27.8,27.8,0,0,0,13.159,3.335h.014A27.516,27.516,0,0,0,55.309,27.422,27.18,27.18,0,0,0,47.254,8.038" transform="translate(527.138 -110.862)" fill="#fff"/>
  </g>
</svg>
